<?xml version="1.0" encoding="utf-8" standalone="no"?>
<!DOCTYPE svg PUBLIC "-//W3C//DTD SVG 1.1//EN"
  "http://www.w3.org/Graphics/SVG/1.1/DTD/svg11.dtd">
<!-- Created with matplotlib (http://matplotlib.org/) -->
<svg height="216pt" version="1.1" viewBox="0 0 432 216" width="432pt" xmlns="http://www.w3.org/2000/svg" xmlns:xlink="http://www.w3.org/1999/xlink">
 <defs>
  <style type="text/css">
*{stroke-linecap:butt;stroke-linejoin:round;}
  </style>
 </defs>
 <g id="figure_1">
  <g id="patch_1">
   <path d="M 0 216 
L 432 216 
L 432 0 
L 0 0 
z
" style="fill:#ffffff;"/>
  </g>
  <g id="axes_1">
   <g id="PathCollection_1">
    <path clip-path="url(#p9ce371bffb)" d="M 68.063083 202.313597 
L 70.334302 202.313597 
L 70.334302 200.042378 
L 68.063083 200.042378 
z
" style="fill:#4067ad;stroke:#4067ad;"/>
    <path clip-path="url(#p9ce371bffb)" d="M 80.38612 205.075444 
L 88.181032 205.075444 
L 88.181032 197.280532 
L 80.38612 197.280532 
z
" style="fill:#b81226;stroke:#b81226;"/>
    <path clip-path="url(#p9ce371bffb)" d="M 95.387688 205.15876 
L 103.349231 205.15876 
L 103.349231 197.197216 
L 95.387688 197.197216 
z
" style="fill:#a50026;stroke:#a50026;"/>
    <path clip-path="url(#p9ce371bffb)" d="M 110.670099 204.961232 
L 118.236587 204.961232 
L 118.236587 197.394744 
L 110.670099 197.394744 
z
" style="fill:#d42d26;stroke:#d42d26;"/>
    <path clip-path="url(#p9ce371bffb)" d="M 126.316319 204.399895 
L 132.760134 204.399895 
L 132.760134 197.956081 
L 126.316319 197.956081 
z
" style="fill:#fdc476;stroke:#fdc476;"/>
    <path clip-path="url(#p9ce371bffb)" d="M 141.234484 204.566614 
L 148.011736 204.566614 
L 148.011736 197.789362 
L 141.234484 197.789362 
z
" style="fill:#fa9d59;stroke:#fa9d59;"/>
    <path clip-path="url(#p9ce371bffb)" d="M 156.175313 204.710668 
L 163.240674 204.710668 
L 163.240674 197.645308 
L 156.175313 197.645308 
z
" style="fill:#f57446;stroke:#f57446;"/>
    <path clip-path="url(#p9ce371bffb)" d="M 172.927186 203.043678 
L 176.658567 203.043678 
L 176.658567 199.312297 
L 172.927186 199.312297 
z
" style="fill:#7eb5d5;stroke:#7eb5d5;"/>
    <path clip-path="url(#p9ce371bffb)" d="M 187.308898 203.74685 
L 192.446622 203.74685 
L 192.446622 198.609126 
L 187.308898 198.609126 
z
" style="fill:#e4f4ef;stroke:#e4f4ef;"/>
    <path clip-path="url(#p9ce371bffb)" d="M 202.039423 204.101208 
L 207.885864 204.101208 
L 207.885864 198.254768 
L 202.039423 198.254768 
z
" style="fill:#fef2ab;stroke:#fef2ab;"/>
    <path clip-path="url(#p9ce371bffb)" d="M 216.701524 204.523991 
L 223.39353 204.523991 
L 223.39353 197.831985 
L 216.701524 197.831985 
z
" style="fill:#fcaa5f;stroke:#fcaa5f;"/>
    <path clip-path="url(#p9ce371bffb)" d="M 231.151639 205.15876 
L 239.113182 205.15876 
L 239.113182 197.197216 
L 231.151639 197.197216 
z
" style="fill:#a50026;stroke:#a50026;"/>
    <path clip-path="url(#p9ce371bffb)" d="M 247.03661 204.358672 
L 253.397978 204.358672 
L 253.397978 197.997304 
L 247.03661 197.997304 
z
" style="fill:#fdcc7d;stroke:#fdcc7d;"/>
    <path clip-path="url(#p9ce371bffb)" d="M 263.890333 202.589833 
L 266.714023 202.589833 
L 266.714023 199.766143 
L 263.890333 199.766143 
z
" style="fill:#5083bb;stroke:#5083bb;"/>
    <path clip-path="url(#p9ce371bffb)" d="M 280.387061 201.177988 
L 280.387061 201.177988 
L 280.387061 201.177988 
L 280.387061 201.177988 
z
" style="fill:#efefef;stroke:#efefef;"/>
    <path clip-path="url(#p9ce371bffb)" d="M 292.451777 204.198155 
L 298.492112 204.198155 
L 298.492112 198.15782 
L 292.451777 198.15782 
z
" style="fill:#fee79b;stroke:#fee79b;"/>
    <path clip-path="url(#p9ce371bffb)" d="M 69.198693 180.471768 
L 69.198693 180.471768 
L 69.198693 180.471768 
L 69.198693 180.471768 
z
" style="fill:#efefef;stroke:#efefef;"/>
    <path clip-path="url(#p9ce371bffb)" d="M 81.980869 182.774475 
L 86.586283 182.774475 
L 86.586283 178.169061 
L 81.980869 178.169061 
z
" style="fill:#bce1ed;stroke:#bce1ed;"/>
    <path clip-path="url(#p9ce371bffb)" d="M 96.493452 183.346776 
L 102.243467 183.346776 
L 102.243467 177.596761 
L 96.493452 177.596761 
z
" style="fill:#fef8b4;stroke:#fef8b4;"/>
    <path clip-path="url(#p9ce371bffb)" d="M 114.365939 180.559173 
L 114.540747 180.559173 
L 114.540747 180.384364 
L 114.365939 180.384364 
z
" style="fill:#313695;stroke:#313695;"/>
    <path clip-path="url(#p9ce371bffb)" d="M 126.247473 183.762522 
L 132.82898 183.762522 
L 132.82898 177.181015 
L 126.247473 177.181015 
z
" style="fill:#fdb669;stroke:#fdb669;"/>
    <path clip-path="url(#p9ce371bffb)" d="M 142.612949 182.481929 
L 146.633271 182.481929 
L 146.633271 178.461607 
L 142.612949 178.461607 
z
" style="fill:#92c5de;stroke:#92c5de;"/>
    <path clip-path="url(#p9ce371bffb)" d="M 158.718972 181.46079 
L 160.697015 181.46079 
L 160.697015 179.482747 
L 158.718972 179.482747 
z
" style="fill:#3c5ba7;stroke:#3c5ba7;"/>
    <path clip-path="url(#p9ce371bffb)" d="M 172.967879 182.296766 
L 176.617874 182.296766 
L 176.617874 178.646771 
L 172.967879 178.646771 
z
" style="fill:#78b0d2;stroke:#78b0d2;"/>
    <path clip-path="url(#p9ce371bffb)" d="M 188.867597 181.481932 
L 190.887923 181.481932 
L 190.887923 179.461605 
L 188.867597 179.461605 
z
" style="fill:#3d5da8;stroke:#3d5da8;"/>
    <path clip-path="url(#p9ce371bffb)" d="M 202.918324 182.516088 
L 207.006964 182.516088 
L 207.006964 178.427448 
L 202.918324 178.427448 
z
" style="fill:#96c8e0;stroke:#96c8e0;"/>
    <path clip-path="url(#p9ce371bffb)" d="M 218.642303 181.876993 
L 221.452751 181.876993 
L 221.452751 179.066544 
L 218.642303 179.066544 
z
" style="fill:#4f81ba;stroke:#4f81ba;"/>
    <path clip-path="url(#p9ce371bffb)" d="M 231.539075 184.065104 
L 238.725746 184.065104 
L 238.725746 176.878433 
L 231.539075 176.878433 
z
" style="fill:#ef633e;stroke:#ef633e;"/>
    <path clip-path="url(#p9ce371bffb)" d="M 249.401394 181.287668 
L 251.033194 181.287668 
L 251.033194 179.655869 
L 249.401394 179.655869 
z
" style="fill:#384ea1;stroke:#384ea1;"/>
    <path clip-path="url(#p9ce371bffb)" d="M 263.838892 181.935054 
L 266.765463 181.935054 
L 266.765463 179.008483 
L 263.838892 179.008483 
z
" style="fill:#5487bd;stroke:#5487bd;"/>
    <path clip-path="url(#p9ce371bffb)" d="M 276.624599 184.234231 
L 284.149523 184.234231 
L 284.149523 176.709306 
L 276.624599 176.709306 
z
" style="fill:#d83328;stroke:#d83328;"/>
    <path clip-path="url(#p9ce371bffb)" d="M 294.857896 181.085817 
L 296.085993 181.085817 
L 296.085993 179.857719 
L 294.857896 179.857719 
z
" style="fill:#35449c;stroke:#35449c;"/>
    <path clip-path="url(#p9ce371bffb)" d="M 68.461117 160.503124 
L 69.936268 160.503124 
L 69.936268 159.027973 
L 68.461117 159.027973 
z
" style="fill:#37499e;stroke:#37499e;"/>
    <path clip-path="url(#p9ce371bffb)" d="M 84.283576 159.765549 
L 84.283576 159.765549 
L 84.283576 159.765549 
L 84.283576 159.765549 
z
" style="fill:#efefef;stroke:#efefef;"/>
    <path clip-path="url(#p9ce371bffb)" d="M 96.228754 162.905254 
L 102.508165 162.905254 
L 102.508165 156.625844 
L 96.228754 156.625844 
z
" style="fill:#fdd484;stroke:#fdd484;"/>
    <path clip-path="url(#p9ce371bffb)" d="M 113.235006 160.983886 
L 115.67168 160.983886 
L 115.67168 158.547212 
L 113.235006 158.547212 
z
" style="fill:#436eb0;stroke:#436eb0;"/>
    <path clip-path="url(#p9ce371bffb)" d="M 127.416377 161.887399 
L 131.660076 161.887399 
L 131.660076 157.643699 
L 127.416377 157.643699 
z
" style="fill:#a1d1e4;stroke:#a1d1e4;"/>
    <path clip-path="url(#p9ce371bffb)" d="M 141.514147 162.874512 
L 147.732073 162.874512 
L 147.732073 156.656586 
L 141.514147 156.656586 
z
" style="fill:#fdda8a;stroke:#fdda8a;"/>
    <path clip-path="url(#p9ce371bffb)" d="M 156.224314 163.249229 
L 163.191673 163.249229 
L 163.191673 156.281869 
L 156.224314 156.281869 
z
" style="fill:#f6814c;stroke:#f6814c;"/>
    <path clip-path="url(#p9ce371bffb)" d="M 172.056579 162.501846 
L 177.529174 162.501846 
L 177.529174 157.029251 
L 172.056579 157.029251 
z
" style="fill:#f5fbcf;stroke:#f5fbcf;"/>
    <path clip-path="url(#p9ce371bffb)" d="M 189.144357 160.498952 
L 190.611163 160.498952 
L 190.611163 159.032146 
L 189.144357 159.032146 
z
" style="fill:#37499e;stroke:#37499e;"/>
    <path clip-path="url(#p9ce371bffb)" d="M 204.072168 160.656024 
L 205.853119 160.656024 
L 205.853119 158.875073 
L 204.072168 158.875073 
z
" style="fill:#3a53a3;stroke:#3a53a3;"/>
    <path clip-path="url(#p9ce371bffb)" d="M 218.00757 161.805506 
L 222.087485 161.805506 
L 222.087485 157.725591 
L 218.00757 157.725591 
z
" style="fill:#96c8e0;stroke:#96c8e0;"/>
    <path clip-path="url(#p9ce371bffb)" d="M 233.057988 161.839972 
L 237.206833 161.839972 
L 237.206833 157.691126 
L 233.057988 157.691126 
z
" style="fill:#9acce1;stroke:#9acce1;"/>
    <path clip-path="url(#p9ce371bffb)" d="M 249.361817 160.621026 
L 251.072771 160.621026 
L 251.072771 158.910071 
L 249.361817 158.910071 
z
" style="fill:#3951a2;stroke:#3951a2;"/>
    <path clip-path="url(#p9ce371bffb)" d="M 262.382641 162.685086 
L 268.221714 162.685086 
L 268.221714 156.846012 
L 262.382641 156.846012 
z
" style="fill:#fef3ad;stroke:#fef3ad;"/>
    <path clip-path="url(#p9ce371bffb)" d="M 276.406289 163.74632 
L 284.367833 163.74632 
L 284.367833 155.784777 
L 276.406289 155.784777 
z
" style="fill:#a50026;stroke:#a50026;"/>
    <path clip-path="url(#p9ce371bffb)" d="M 291.491173 163.74632 
L 299.452716 163.74632 
L 299.452716 155.784777 
L 291.491173 155.784777 
z
" style="fill:#a50026;stroke:#a50026;"/>
    <path clip-path="url(#p9ce371bffb)" d="M 68.743323 139.514699 
L 69.654063 139.514699 
L 69.654063 138.603959 
L 68.743323 138.603959 
z
" style="fill:#333d98;stroke:#333d98;"/>
    <path clip-path="url(#p9ce371bffb)" d="M 82.410444 140.932461 
L 86.156708 140.932461 
L 86.156708 137.186197 
L 82.410444 137.186197 
z
" style="fill:#7eb5d5;stroke:#7eb5d5;"/>
    <path clip-path="url(#p9ce371bffb)" d="M 95.978183 142.449606 
L 102.758736 142.449606 
L 102.758736 135.669053 
L 95.978183 135.669053 
z
" style="fill:#fa9d59;stroke:#fa9d59;"/>
    <path clip-path="url(#p9ce371bffb)" d="M 114.200039 139.312633 
L 114.706647 139.312633 
L 114.706647 138.806025 
L 114.200039 138.806025 
z
" style="fill:#313896;stroke:#313896;"/>
    <path clip-path="url(#p9ce371bffb)" d="M 127.674182 140.923374 
L 131.402271 140.923374 
L 131.402271 137.195285 
L 127.674182 137.195285 
z
" style="fill:#7eb5d5;stroke:#7eb5d5;"/>
    <path clip-path="url(#p9ce371bffb)" d="M 142.215254 141.467185 
L 147.030966 141.467185 
L 147.030966 136.651473 
L 142.215254 136.651473 
z
" style="fill:#cde9f2;stroke:#cde9f2;"/>
    <path clip-path="url(#p9ce371bffb)" d="M 159.002156 139.765166 
L 160.41383 139.765166 
L 160.41383 138.353492 
L 159.002156 138.353492 
z
" style="fill:#37499e;stroke:#37499e;"/>
    <path clip-path="url(#p9ce371bffb)" d="M 174.792877 139.059329 
L 174.792877 139.059329 
L 174.792877 139.059329 
L 174.792877 139.059329 
z
" style="fill:#efefef;stroke:#efefef;"/>
    <path clip-path="url(#p9ce371bffb)" d="M 188.941897 139.995193 
L 190.813624 139.995193 
L 190.813624 138.123466 
L 188.941897 138.123466 
z
" style="fill:#3b58a6;stroke:#3b58a6;"/>
    <path clip-path="url(#p9ce371bffb)" d="M 200.981872 143.040101 
L 208.943415 143.040101 
L 208.943415 135.078558 
L 200.981872 135.078558 
z
" style="fill:#a50026;stroke:#a50026;"/>
    <path clip-path="url(#p9ce371bffb)" d="M 216.066756 143.040101 
L 224.028299 143.040101 
L 224.028299 135.078558 
L 216.066756 135.078558 
z
" style="fill:#a50026;stroke:#a50026;"/>
    <path clip-path="url(#p9ce371bffb)" d="M 231.151639 143.040101 
L 239.113182 143.040101 
L 239.113182 135.078558 
L 231.151639 135.078558 
z
" style="fill:#a50026;stroke:#a50026;"/>
    <path clip-path="url(#p9ce371bffb)" d="M 247.919295 141.357328 
L 252.515293 141.357328 
L 252.515293 136.76133 
L 247.919295 136.76133 
z
" style="fill:#bce1ed;stroke:#bce1ed;"/>
    <path clip-path="url(#p9ce371bffb)" d="M 264.853294 139.508213 
L 265.751061 139.508213 
L 265.751061 138.610446 
L 264.853294 138.610446 
z
" style="fill:#333d98;stroke:#333d98;"/>
    <path clip-path="url(#p9ce371bffb)" d="M 278.135926 141.310464 
L 282.638196 141.310464 
L 282.638196 136.808195 
L 278.135926 136.808195 
z
" style="fill:#b4ddeb;stroke:#b4ddeb;"/>
    <path clip-path="url(#p9ce371bffb)" d="M 293.094845 141.436429 
L 297.849044 141.436429 
L 297.849044 136.682229 
L 293.094845 136.682229 
z
" style="fill:#c9e7f1;stroke:#c9e7f1;"/>
    <path clip-path="url(#p9ce371bffb)" d="M 67.771988 119.779815 
L 70.625397 119.779815 
L 70.625397 116.926405 
L 67.771988 116.926405 
z
" style="fill:#5083bb;stroke:#5083bb;"/>
    <path clip-path="url(#p9ce371bffb)" d="M 83.698483 118.938203 
L 84.86867 118.938203 
L 84.86867 117.768016 
L 83.698483 117.768016 
z
" style="fill:#34429b;stroke:#34429b;"/>
    <path clip-path="url(#p9ce371bffb)" d="M 97.972481 119.749088 
L 100.764438 119.749088 
L 100.764438 116.957132 
L 97.972481 116.957132 
z
" style="fill:#4f81ba;stroke:#4f81ba;"/>
    <path clip-path="url(#p9ce371bffb)" d="M 114.149757 118.656696 
L 114.756929 118.656696 
L 114.756929 118.049524 
L 114.149757 118.049524 
z
" style="fill:#313896;stroke:#313896;"/>
    <path clip-path="url(#p9ce371bffb)" d="M 125.557455 122.333881 
L 133.518998 122.333881 
L 133.518998 114.372338 
L 125.557455 114.372338 
z
" style="fill:#a50026;stroke:#a50026;"/>
    <path clip-path="url(#p9ce371bffb)" d="M 140.642338 122.333881 
L 148.603882 122.333881 
L 148.603882 114.372338 
L 140.642338 114.372338 
z
" style="fill:#a50026;stroke:#a50026;"/>
    <path clip-path="url(#p9ce371bffb)" d="M 156.048429 122.012674 
L 163.367557 122.012674 
L 163.367557 114.693546 
L 156.048429 114.693546 
z
" style="fill:#e65035;stroke:#e65035;"/>
    <path clip-path="url(#p9ce371bffb)" d="M 173.229837 119.91615 
L 176.355917 119.91615 
L 176.355917 116.79007 
L 173.229837 116.79007 
z
" style="fill:#5d92c3;stroke:#5d92c3;"/>
    <path clip-path="url(#p9ce371bffb)" d="M 186.812002 121.418868 
L 192.943519 121.418868 
L 192.943519 115.287351 
L 186.812002 115.287351 
z
" style="fill:#fee293;stroke:#fee293;"/>
    <path clip-path="url(#p9ce371bffb)" d="M 203.294339 120.021415 
L 206.630949 120.021415 
L 206.630949 116.684805 
L 203.294339 116.684805 
z
" style="fill:#679dc9;stroke:#679dc9;"/>
    <path clip-path="url(#p9ce371bffb)" d="M 216.066756 122.333881 
L 224.028299 122.333881 
L 224.028299 114.372338 
L 216.066756 114.372338 
z
" style="fill:#a50026;stroke:#a50026;"/>
    <path clip-path="url(#p9ce371bffb)" d="M 233.339007 120.146514 
L 236.925814 120.146514 
L 236.925814 116.559706 
L 233.339007 116.559706 
z
" style="fill:#74add1;stroke:#74add1;"/>
    <path clip-path="url(#p9ce371bffb)" d="M 250.217294 118.35311 
L 250.217294 118.35311 
L 250.217294 118.35311 
L 250.217294 118.35311 
z
" style="fill:#efefef;stroke:#efefef;"/>
    <path clip-path="url(#p9ce371bffb)" d="M 263.287298 120.367989 
L 267.317057 120.367989 
L 267.317057 116.33823 
L 263.287298 116.33823 
z
" style="fill:#92c5de;stroke:#92c5de;"/>
    <path clip-path="url(#p9ce371bffb)" d="M 276.486133 122.254038 
L 284.287989 122.254038 
L 284.287989 114.452182 
L 276.486133 114.452182 
z
" style="fill:#b81226;stroke:#b81226;"/>
    <path clip-path="url(#p9ce371bffb)" d="M 292.269079 121.555975 
L 298.67481 121.555975 
L 298.67481 115.150244 
L 292.269079 115.150244 
z
" style="fill:#fdc879;stroke:#fdc879;"/>
    <path clip-path="url(#p9ce371bffb)" d="M 68.067962 98.777621 
L 70.329423 98.777621 
L 70.329423 96.51616 
L 68.067962 96.51616 
z
" style="fill:#4067ad;stroke:#4067ad;"/>
    <path clip-path="url(#p9ce371bffb)" d="M 84.023238 97.907229 
L 84.543915 97.907229 
L 84.543915 97.386552 
L 84.023238 97.386552 
z
" style="fill:#313896;stroke:#313896;"/>
    <path clip-path="url(#p9ce371bffb)" d="M 95.387688 101.627662 
L 103.349231 101.627662 
L 103.349231 93.666119 
L 95.387688 93.666119 
z
" style="fill:#a50026;stroke:#a50026;"/>
    <path clip-path="url(#p9ce371bffb)" d="M 110.704284 101.395949 
L 118.202402 101.395949 
L 118.202402 93.897832 
L 110.704284 93.897832 
z
" style="fill:#d93529;stroke:#d93529;"/>
    <path clip-path="url(#p9ce371bffb)" d="M 125.557455 101.627662 
L 133.518998 101.627662 
L 133.518998 93.666119 
L 125.557455 93.666119 
z
" style="fill:#a50026;stroke:#a50026;"/>
    <path clip-path="url(#p9ce371bffb)" d="M 140.642338 101.627662 
L 148.603882 101.627662 
L 148.603882 93.666119 
L 140.642338 93.666119 
z
" style="fill:#a50026;stroke:#a50026;"/>
    <path clip-path="url(#p9ce371bffb)" d="M 155.727222 101.627662 
L 163.688765 101.627662 
L 163.688765 93.666119 
L 155.727222 93.666119 
z
" style="fill:#a50026;stroke:#a50026;"/>
    <path clip-path="url(#p9ce371bffb)" d="M 172.814503 99.625264 
L 176.771251 99.625264 
L 176.771251 95.668516 
L 172.814503 95.668516 
z
" style="fill:#8dc1dc;stroke:#8dc1dc;"/>
    <path clip-path="url(#p9ce371bffb)" d="M 189.543381 97.981269 
L 190.212139 97.981269 
L 190.212139 97.312511 
L 189.543381 97.312511 
z
" style="fill:#313896;stroke:#313896;"/>
    <path clip-path="url(#p9ce371bffb)" d="M 202.891265 99.718269 
L 207.034022 99.718269 
L 207.034022 95.575512 
L 202.891265 95.575512 
z
" style="fill:#9acce1;stroke:#9acce1;"/>
    <path clip-path="url(#p9ce371bffb)" d="M 217.450809 100.243609 
L 222.644246 100.243609 
L 222.644246 95.050172 
L 217.450809 95.050172 
z
" style="fill:#e7f5ea;stroke:#e7f5ea;"/>
    <path clip-path="url(#p9ce371bffb)" d="M 232.641667 100.137634 
L 237.623154 100.137634 
L 237.623154 95.156147 
L 232.641667 95.156147 
z
" style="fill:#dbf0f6;stroke:#dbf0f6;"/>
    <path clip-path="url(#p9ce371bffb)" d="M 248.683942 99.180242 
L 251.750646 99.180242 
L 251.750646 96.113538 
L 248.683942 96.113538 
z
" style="fill:#5a8ec1;stroke:#5a8ec1;"/>
    <path clip-path="url(#p9ce371bffb)" d="M 263.397726 99.551342 
L 267.20663 99.551342 
L 267.20663 95.742438 
L 263.397726 95.742438 
z
" style="fill:#83b9d7;stroke:#83b9d7;"/>
    <path clip-path="url(#p9ce371bffb)" d="M 276.540494 101.493458 
L 284.233629 101.493458 
L 284.233629 93.800323 
L 276.540494 93.800323 
z
" style="fill:#c41e26;stroke:#c41e26;"/>
    <path clip-path="url(#p9ce371bffb)" d="M 295.471945 97.64689 
L 295.471945 97.64689 
L 295.471945 97.64689 
L 295.471945 97.64689 
z
" style="fill:#efefef;stroke:#efefef;"/>
    <path clip-path="url(#p9ce371bffb)" d="M 68.644777 77.494586 
L 69.752608 77.494586 
L 69.752608 76.386755 
L 68.644777 76.386755 
z
" style="fill:#343f99;stroke:#343f99;"/>
    <path clip-path="url(#p9ce371bffb)" d="M 80.784006 80.440241 
L 87.783146 80.440241 
L 87.783146 73.4411 
L 80.784006 73.4411 
z
" style="fill:#f67e4b;stroke:#f67e4b;"/>
    <path clip-path="url(#p9ce371bffb)" d="M 96.412699 79.896431 
L 102.32422 79.896431 
L 102.32422 73.984911 
L 96.412699 73.984911 
z
" style="fill:#feeea6;stroke:#feeea6;"/>
    <path clip-path="url(#p9ce371bffb)" d="M 112.874933 78.51908 
L 116.031753 78.51908 
L 116.031753 75.362261 
L 112.874933 75.362261 
z
" style="fill:#5f94c4;stroke:#5f94c4;"/>
    <path clip-path="url(#p9ce371bffb)" d="M 127.087031 79.391866 
L 131.989422 79.391866 
L 131.989422 74.489475 
L 127.087031 74.489475 
z
" style="fill:#d5edf5;stroke:#d5edf5;"/>
    <path clip-path="url(#p9ce371bffb)" d="M 142.902572 78.661209 
L 146.343648 78.661209 
L 146.343648 75.220133 
L 142.902572 75.220133 
z
" style="fill:#6ca4cc;stroke:#6ca4cc;"/>
    <path clip-path="url(#p9ce371bffb)" d="M 159.221041 77.427623 
L 160.194946 77.427623 
L 160.194946 76.453718 
L 159.221041 76.453718 
z
" style="fill:#333d98;stroke:#333d98;"/>
    <path clip-path="url(#p9ce371bffb)" d="M 174.052537 77.68101 
L 175.533217 77.68101 
L 175.533217 76.200331 
L 174.052537 76.200331 
z
" style="fill:#37499e;stroke:#37499e;"/>
    <path clip-path="url(#p9ce371bffb)" d="M 188.604905 78.213526 
L 191.150616 78.213526 
L 191.150616 75.667815 
L 188.604905 75.667815 
z
" style="fill:#4576b4;stroke:#4576b4;"/>
    <path clip-path="url(#p9ce371bffb)" d="M 201.568679 80.334636 
L 208.356609 80.334636 
L 208.356609 73.546706 
L 201.568679 73.546706 
z
" style="fill:#fa9a58;stroke:#fa9a58;"/>
    <path clip-path="url(#p9ce371bffb)" d="M 218.150021 78.838177 
L 221.945033 78.838177 
L 221.945033 75.043165 
L 218.150021 75.043165 
z
" style="fill:#83b9d7;stroke:#83b9d7;"/>
    <path clip-path="url(#p9ce371bffb)" d="M 233.422793 78.650288 
L 236.842028 78.650288 
L 236.842028 75.231053 
L 233.422793 75.231053 
z
" style="fill:#6ca4cc;stroke:#6ca4cc;"/>
    <path clip-path="url(#p9ce371bffb)" d="M 250.217294 76.940671 
L 250.217294 76.940671 
L 250.217294 76.940671 
L 250.217294 76.940671 
z
" style="fill:#efefef;stroke:#efefef;"/>
    <path clip-path="url(#p9ce371bffb)" d="M 262.161594 80.081254 
L 268.442761 80.081254 
L 268.442761 73.800087 
L 262.161594 73.800087 
z
" style="fill:#fdd484;stroke:#fdd484;"/>
    <path clip-path="url(#p9ce371bffb)" d="M 276.406289 80.921442 
L 284.367833 80.921442 
L 284.367833 72.959899 
L 276.406289 72.959899 
z
" style="fill:#a50026;stroke:#a50026;"/>
    <path clip-path="url(#p9ce371bffb)" d="M 291.573619 80.838996 
L 299.37027 80.838996 
L 299.37027 73.042345 
L 291.573619 73.042345 
z
" style="fill:#b81226;stroke:#b81226;"/>
    <path clip-path="url(#p9ce371bffb)" d="M 66.010222 59.422921 
L 72.387163 59.422921 
L 72.387163 53.045981 
L 66.010222 53.045981 
z
" style="fill:#fdca7b;stroke:#fdca7b;"/>
    <path clip-path="url(#p9ce371bffb)" d="M 82.788366 57.729661 
L 85.778786 57.729661 
L 85.778786 54.739241 
L 82.788366 54.739241 
z
" style="fill:#588cbf;stroke:#588cbf;"/>
    <path clip-path="url(#p9ce371bffb)" d="M 96.318647 59.284263 
L 102.418272 59.284263 
L 102.418272 53.184639 
L 96.318647 53.184639 
z
" style="fill:#fee395;stroke:#fee395;"/>
    <path clip-path="url(#p9ce371bffb)" d="M 110.643761 60.044033 
L 118.262925 60.044033 
L 118.262925 52.424869 
L 110.643761 52.424869 
z
" style="fill:#ce2726;stroke:#ce2726;"/>
    <path clip-path="url(#p9ce371bffb)" d="M 126.431362 59.341315 
L 132.645091 59.341315 
L 132.645091 53.127587 
L 126.431362 53.127587 
z
" style="fill:#fddc8c;stroke:#fddc8c;"/>
    <path clip-path="url(#p9ce371bffb)" d="M 144.339328 56.518234 
L 144.906892 56.518234 
L 144.906892 55.950669 
L 144.339328 55.950669 
z
" style="fill:#313896;stroke:#313896;"/>
    <path clip-path="url(#p9ce371bffb)" d="M 159.707993 56.234451 
L 159.707993 56.234451 
L 159.707993 56.234451 
L 159.707993 56.234451 
z
" style="fill:#efefef;stroke:#efefef;"/>
    <path clip-path="url(#p9ce371bffb)" d="M 173.157356 57.869972 
L 176.428398 57.869972 
L 176.428398 54.59893 
L 173.157356 54.59893 
z
" style="fill:#659bc7;stroke:#659bc7;"/>
    <path clip-path="url(#p9ce371bffb)" d="M 189.134817 56.977395 
L 190.620704 56.977395 
L 190.620704 55.491508 
L 189.134817 55.491508 
z
" style="fill:#37499e;stroke:#37499e;"/>
    <path clip-path="url(#p9ce371bffb)" d="M 202.664479 58.532616 
L 207.260809 58.532616 
L 207.260809 53.936286 
L 202.664479 53.936286 
z
" style="fill:#bce1ed;stroke:#bce1ed;"/>
    <path clip-path="url(#p9ce371bffb)" d="M 218.408877 57.873101 
L 221.686177 57.873101 
L 221.686177 54.595801 
L 218.408877 54.595801 
z
" style="fill:#659bc7;stroke:#659bc7;"/>
    <path clip-path="url(#p9ce371bffb)" d="M 231.692118 59.674744 
L 238.572703 59.674744 
L 238.572703 52.794159 
L 231.692118 52.794159 
z
" style="fill:#f88e52;stroke:#f88e52;"/>
    <path clip-path="url(#p9ce371bffb)" d="M 249.333207 57.118539 
L 251.101381 57.118539 
L 251.101381 55.350364 
L 249.333207 55.350364 
z
" style="fill:#3a53a3;stroke:#3a53a3;"/>
    <path clip-path="url(#p9ce371bffb)" d="M 263.41867 58.117959 
L 267.185685 58.117959 
L 267.185685 54.350944 
L 263.41867 54.350944 
z
" style="fill:#80b7d6;stroke:#80b7d6;"/>
    <path clip-path="url(#p9ce371bffb)" d="M 280.387061 56.234451 
L 280.387061 56.234451 
L 280.387061 56.234451 
L 280.387061 56.234451 
z
" style="fill:#efefef;stroke:#efefef;"/>
    <path clip-path="url(#p9ce371bffb)" d="M 292.300671 59.405724 
L 298.643218 59.405724 
L 298.643218 53.063178 
L 292.300671 53.063178 
z
" style="fill:#fdce7f;stroke:#fdce7f;"/>
    <path clip-path="url(#p9ce371bffb)" d="M 67.574103 37.152821 
L 70.823282 37.152821 
L 70.823282 33.903642 
L 67.574103 33.903642 
z
" style="fill:#6399c6;stroke:#6399c6;"/>
    <path clip-path="url(#p9ce371bffb)" d="M 84.283576 35.528232 
L 84.283576 35.528232 
L 84.283576 35.528232 
L 84.283576 35.528232 
z
" style="fill:#efefef;stroke:#efefef;"/>
    <path clip-path="url(#p9ce371bffb)" d="M 97.003247 37.893444 
L 101.733672 37.893444 
L 101.733672 33.163019 
L 97.003247 33.163019 
z
" style="fill:#c7e6f0;stroke:#c7e6f0;"/>
    <path clip-path="url(#p9ce371bffb)" d="M 114.125477 35.856097 
L 114.781209 35.856097 
L 114.781209 35.200366 
L 114.125477 35.200366 
z
" style="fill:#313896;stroke:#313896;"/>
    <path clip-path="url(#p9ce371bffb)" d="M 126.599931 38.466527 
L 132.476522 38.466527 
L 132.476522 32.589936 
L 126.599931 32.589936 
z
" style="fill:#fef1a9;stroke:#fef1a9;"/>
    <path clip-path="url(#p9ce371bffb)" d="M 142.742557 37.408784 
L 146.503662 37.408784 
L 146.503662 33.647679 
L 142.742557 33.647679 
z
" style="fill:#80b7d6;stroke:#80b7d6;"/>
    <path clip-path="url(#p9ce371bffb)" d="M 158.00767 37.228555 
L 161.408317 37.228555 
L 161.408317 33.827908 
L 158.00767 33.827908 
z
" style="fill:#6aa2cb;stroke:#6aa2cb;"/>
    <path clip-path="url(#p9ce371bffb)" d="M 171.209875 39.111233 
L 178.375879 39.111233 
L 178.375879 31.94523 
L 171.209875 31.94523 
z
" style="fill:#f0653f;stroke:#f0653f;"/>
    <path clip-path="url(#p9ce371bffb)" d="M 185.896989 39.509003 
L 193.858532 39.509003 
L 193.858532 31.54746 
L 185.896989 31.54746 
z
" style="fill:#a50026;stroke:#a50026;"/>
    <path clip-path="url(#p9ce371bffb)" d="M 204.015118 36.475757 
L 205.910169 36.475757 
L 205.910169 34.580706 
L 204.015118 34.580706 
z
" style="fill:#3b58a6;stroke:#3b58a6;"/>
    <path clip-path="url(#p9ce371bffb)" d="M 217.039627 38.536132 
L 223.055428 38.536132 
L 223.055428 32.520331 
L 217.039627 32.520331 
z
" style="fill:#fee89c;stroke:#fee89c;"/>
    <path clip-path="url(#p9ce371bffb)" d="M 232.781244 37.879398 
L 237.483578 37.879398 
L 237.483578 33.177065 
L 232.781244 33.177065 
z
" style="fill:#c4e5f0;stroke:#c4e5f0;"/>
    <path clip-path="url(#p9ce371bffb)" d="M 247.333699 38.411827 
L 253.10089 38.411827 
L 253.10089 32.644636 
L 247.333699 32.644636 
z
" style="fill:#fef7b3;stroke:#fef7b3;"/>
    <path clip-path="url(#p9ce371bffb)" d="M 262.591283 38.239127 
L 268.013073 38.239127 
L 268.013073 32.817337 
L 262.591283 32.817337 
z
" style="fill:#f3fad4;stroke:#f3fad4;"/>
    <path clip-path="url(#p9ce371bffb)" d="M 276.406289 39.509003 
L 284.367833 39.509003 
L 284.367833 31.54746 
L 276.406289 31.54746 
z
" style="fill:#a50026;stroke:#a50026;"/>
    <path clip-path="url(#p9ce371bffb)" d="M 294.039816 36.960361 
L 296.904073 36.960361 
L 296.904073 34.096103 
L 294.039816 34.096103 
z
" style="fill:#5285bc;stroke:#5285bc;"/>
    <path clip-path="url(#p9ce371bffb)" d="M 68.227312 15.793393 
L 70.170073 15.793393 
L 70.170073 13.850631 
L 68.227312 13.850631 
z
" style="fill:#3c5ba7;stroke:#3c5ba7;"/>
    <path clip-path="url(#p9ce371bffb)" d="M 83.492485 15.613103 
L 85.074667 15.613103 
L 85.074667 14.030921 
L 83.492485 14.030921 
z
" style="fill:#384ea1;stroke:#384ea1;"/>
    <path clip-path="url(#p9ce371bffb)" d="M 99.36846 14.822012 
L 99.36846 14.822012 
L 99.36846 14.822012 
L 99.36846 14.822012 
z
" style="fill:#efefef;stroke:#efefef;"/>
    <path clip-path="url(#p9ce371bffb)" d="M 112.722858 16.552497 
L 116.183828 16.552497 
L 116.183828 13.091528 
L 112.722858 13.091528 
z
" style="fill:#6ea6cd;stroke:#6ea6cd;"/>
    <path clip-path="url(#p9ce371bffb)" d="M 127.034221 17.326018 
L 132.042232 17.326018 
L 132.042232 12.318006 
L 127.034221 12.318006 
z
" style="fill:#ddf1f7;stroke:#ddf1f7;"/>
    <path clip-path="url(#p9ce371bffb)" d="M 140.642338 18.802784 
L 148.603882 18.802784 
L 148.603882 10.84124 
L 140.642338 10.84124 
z
" style="fill:#a50026;stroke:#a50026;"/>
    <path clip-path="url(#p9ce371bffb)" d="M 158.429065 16.100941 
L 160.986922 16.100941 
L 160.986922 13.543083 
L 158.429065 13.543083 
z
" style="fill:#4576b4;stroke:#4576b4;"/>
    <path clip-path="url(#p9ce371bffb)" d="M 171.66863 17.946259 
L 177.917123 17.946259 
L 177.917123 11.697766 
L 171.66863 11.697766 
z
" style="fill:#fdd888;stroke:#fdd888;"/>
    <path clip-path="url(#p9ce371bffb)" d="M 187.395478 17.304294 
L 192.360042 17.304294 
L 192.360042 12.33973 
L 187.395478 12.33973 
z
" style="fill:#d9eff6;stroke:#d9eff6;"/>
    <path clip-path="url(#p9ce371bffb)" d="M 201.232496 18.55216 
L 208.692791 18.55216 
L 208.692791 11.091864 
L 201.232496 11.091864 
z
" style="fill:#dd3d2d;stroke:#dd3d2d;"/>
    <path clip-path="url(#p9ce371bffb)" d="M 217.169651 17.699889 
L 222.925404 17.699889 
L 222.925404 11.944136 
L 217.169651 11.944136 
z
" style="fill:#fef8b4;stroke:#fef8b4;"/>
    <path clip-path="url(#p9ce371bffb)" d="M 233.353117 16.601306 
L 236.911705 16.601306 
L 236.911705 13.042718 
L 233.353117 13.042718 
z
" style="fill:#74add1;stroke:#74add1;"/>
    <path clip-path="url(#p9ce371bffb)" d="M 249.347078 15.692229 
L 251.087511 15.692229 
L 251.087511 13.951796 
L 249.347078 13.951796 
z
" style="fill:#3a53a3;stroke:#3a53a3;"/>
    <path clip-path="url(#p9ce371bffb)" d="M 263.822325 16.301865 
L 266.782031 16.301865 
L 266.782031 13.342159 
L 263.822325 13.342159 
z
" style="fill:#5689be;stroke:#5689be;"/>
    <path clip-path="url(#p9ce371bffb)" d="M 276.669678 18.539396 
L 284.104445 18.539396 
L 284.104445 11.104629 
L 276.669678 11.104629 
z
" style="fill:#de3f2e;stroke:#de3f2e;"/>
    <path clip-path="url(#p9ce371bffb)" d="M 291.491173 18.802784 
L 299.452716 18.802784 
L 299.452716 10.84124 
L 291.491173 10.84124 
z
" style="fill:#a50026;stroke:#a50026;"/>
   </g>
   <g id="LineCollection_1">
    <path clip-path="url(#p9ce371bffb)" d="M 69.198693 201.177988 
L 295.471945 201.177988 
" style="fill:none;stroke:#aeaeae;stroke-opacity:0.5;"/>
    <path clip-path="url(#p9ce371bffb)" d="M 69.198693 180.471768 
L 295.471945 180.471768 
" style="fill:none;stroke:#aeaeae;stroke-opacity:0.5;"/>
    <path clip-path="url(#p9ce371bffb)" d="M 69.198693 159.765549 
L 295.471945 159.765549 
" style="fill:none;stroke:#aeaeae;stroke-opacity:0.5;"/>
    <path clip-path="url(#p9ce371bffb)" d="M 69.198693 139.059329 
L 295.471945 139.059329 
" style="fill:none;stroke:#aeaeae;stroke-opacity:0.5;"/>
    <path clip-path="url(#p9ce371bffb)" d="M 69.198693 118.35311 
L 295.471945 118.35311 
" style="fill:none;stroke:#aeaeae;stroke-opacity:0.5;"/>
    <path clip-path="url(#p9ce371bffb)" d="M 69.198693 97.64689 
L 295.471945 97.64689 
" style="fill:none;stroke:#aeaeae;stroke-opacity:0.5;"/>
    <path clip-path="url(#p9ce371bffb)" d="M 69.198693 76.940671 
L 295.471945 76.940671 
" style="fill:none;stroke:#aeaeae;stroke-opacity:0.5;"/>
    <path clip-path="url(#p9ce371bffb)" d="M 69.198693 56.234451 
L 295.471945 56.234451 
" style="fill:none;stroke:#aeaeae;stroke-opacity:0.5;"/>
    <path clip-path="url(#p9ce371bffb)" d="M 69.198693 35.528232 
L 295.471945 35.528232 
" style="fill:none;stroke:#aeaeae;stroke-opacity:0.5;"/>
    <path clip-path="url(#p9ce371bffb)" d="M 69.198693 14.822012 
L 295.471945 14.822012 
" style="fill:none;stroke:#aeaeae;stroke-opacity:0.5;"/>
   </g>
   <g id="text_1">
    <!-- Bio &amp; Chm Signatures of Toxicities -->
    <defs>
     <path d="M 19.671875 34.8125 
L 19.671875 8.109375 
L 35.5 8.109375 
Q 43.453125 8.109375 47.28125 11.40625 
Q 51.125 14.703125 51.125 21.484375 
Q 51.125 28.328125 47.28125 31.5625 
Q 43.453125 34.8125 35.5 34.8125 
z
M 19.671875 64.796875 
L 19.671875 42.828125 
L 34.28125 42.828125 
Q 41.5 42.828125 45.03125 45.53125 
Q 48.578125 48.25 48.578125 53.8125 
Q 48.578125 59.328125 45.03125 62.0625 
Q 41.5 64.796875 34.28125 64.796875 
z
M 9.8125 72.90625 
L 35.015625 72.90625 
Q 46.296875 72.90625 52.390625 68.21875 
Q 58.5 63.53125 58.5 54.890625 
Q 58.5 48.1875 55.375 44.234375 
Q 52.25 40.28125 46.1875 39.3125 
Q 53.46875 37.75 57.5 32.78125 
Q 61.53125 27.828125 61.53125 20.40625 
Q 61.53125 10.640625 54.890625 5.3125 
Q 48.25 0 35.984375 0 
L 9.8125 0 
z
" id="DejaVuSans-42"/>
     <path d="M 9.421875 54.6875 
L 18.40625 54.6875 
L 18.40625 0 
L 9.421875 0 
z
M 9.421875 75.984375 
L 18.40625 75.984375 
L 18.40625 64.59375 
L 9.421875 64.59375 
z
" id="DejaVuSans-69"/>
     <path d="M 30.609375 48.390625 
Q 23.390625 48.390625 19.1875 42.75 
Q 14.984375 37.109375 14.984375 27.296875 
Q 14.984375 17.484375 19.15625 11.84375 
Q 23.34375 6.203125 30.609375 6.203125 
Q 37.796875 6.203125 41.984375 11.859375 
Q 46.1875 17.53125 46.1875 27.296875 
Q 46.1875 37.015625 41.984375 42.703125 
Q 37.796875 48.390625 30.609375 48.390625 
M 30.609375 56 
Q 42.328125 56 49.015625 48.375 
Q 55.71875 40.765625 55.71875 27.296875 
Q 55.71875 13.875 49.015625 6.21875 
Q 42.328125 -1.421875 30.609375 -1.421875 
Q 18.84375 -1.421875 12.171875 6.21875 
Q 5.515625 13.875 5.515625 27.296875 
Q 5.515625 40.765625 12.171875 48.375 
Q 18.84375 56 30.609375 56 
" id="DejaVuSans-6f"/>
     <path id="DejaVuSans-20"/>
     <path d="M 24.3125 39.203125 
Q 19.875 35.25 17.796875 31.3125 
Q 15.71875 27.390625 15.71875 23.09375 
Q 15.71875 15.96875 20.890625 11.234375 
Q 26.078125 6.5 33.890625 6.5 
Q 38.53125 6.5 42.578125 8.03125 
Q 46.625 9.578125 50.203125 12.703125 
z
M 31.203125 44.671875 
L 56 19.28125 
Q 58.890625 23.640625 60.5 28.59375 
Q 62.109375 33.546875 62.40625 39.109375 
L 71.484375 39.109375 
Q 70.90625 32.671875 68.359375 26.359375 
Q 65.828125 20.0625 61.28125 13.921875 
L 74.90625 0 
L 62.59375 0 
L 55.609375 7.171875 
Q 50.53125 2.828125 44.96875 0.703125 
Q 39.40625 -1.421875 33.015625 -1.421875 
Q 21.234375 -1.421875 13.765625 5.296875 
Q 6.296875 12.015625 6.296875 22.515625 
Q 6.296875 28.765625 9.5625 34.25 
Q 12.84375 39.75 19.390625 44.578125 
Q 17.046875 47.65625 15.8125 50.703125 
Q 14.59375 53.765625 14.59375 56.6875 
Q 14.59375 64.59375 20.015625 69.40625 
Q 25.4375 74.21875 34.421875 74.21875 
Q 38.484375 74.21875 42.5 73.34375 
Q 46.53125 72.46875 50.6875 70.703125 
L 50.6875 61.8125 
Q 46.4375 64.109375 42.578125 65.296875 
Q 38.71875 66.5 35.40625 66.5 
Q 30.28125 66.5 27.078125 63.78125 
Q 23.875 61.078125 23.875 56.78125 
Q 23.875 54.296875 25.3125 51.78125 
Q 26.765625 49.265625 31.203125 44.671875 
" id="DejaVuSans-26"/>
     <path d="M 64.40625 67.28125 
L 64.40625 56.890625 
Q 59.421875 61.53125 53.78125 63.8125 
Q 48.140625 66.109375 41.796875 66.109375 
Q 29.296875 66.109375 22.65625 58.46875 
Q 16.015625 50.828125 16.015625 36.375 
Q 16.015625 21.96875 22.65625 14.328125 
Q 29.296875 6.6875 41.796875 6.6875 
Q 48.140625 6.6875 53.78125 8.984375 
Q 59.421875 11.28125 64.40625 15.921875 
L 64.40625 5.609375 
Q 59.234375 2.09375 53.4375 0.328125 
Q 47.65625 -1.421875 41.21875 -1.421875 
Q 24.65625 -1.421875 15.125 8.703125 
Q 5.609375 18.84375 5.609375 36.375 
Q 5.609375 53.953125 15.125 64.078125 
Q 24.65625 74.21875 41.21875 74.21875 
Q 47.75 74.21875 53.53125 72.484375 
Q 59.328125 70.75 64.40625 67.28125 
" id="DejaVuSans-43"/>
     <path d="M 54.890625 33.015625 
L 54.890625 0 
L 45.90625 0 
L 45.90625 32.71875 
Q 45.90625 40.484375 42.875 44.328125 
Q 39.84375 48.1875 33.796875 48.1875 
Q 26.515625 48.1875 22.3125 43.546875 
Q 18.109375 38.921875 18.109375 30.90625 
L 18.109375 0 
L 9.078125 0 
L 9.078125 75.984375 
L 18.109375 75.984375 
L 18.109375 46.1875 
Q 21.34375 51.125 25.703125 53.5625 
Q 30.078125 56 35.796875 56 
Q 45.21875 56 50.046875 50.171875 
Q 54.890625 44.34375 54.890625 33.015625 
" id="DejaVuSans-68"/>
     <path d="M 52 44.1875 
Q 55.375 50.25 60.0625 53.125 
Q 64.75 56 71.09375 56 
Q 79.640625 56 84.28125 50.015625 
Q 88.921875 44.046875 88.921875 33.015625 
L 88.921875 0 
L 79.890625 0 
L 79.890625 32.71875 
Q 79.890625 40.578125 77.09375 44.375 
Q 74.3125 48.1875 68.609375 48.1875 
Q 61.625 48.1875 57.5625 43.546875 
Q 53.515625 38.921875 53.515625 30.90625 
L 53.515625 0 
L 44.484375 0 
L 44.484375 32.71875 
Q 44.484375 40.625 41.703125 44.40625 
Q 38.921875 48.1875 33.109375 48.1875 
Q 26.21875 48.1875 22.15625 43.53125 
Q 18.109375 38.875 18.109375 30.90625 
L 18.109375 0 
L 9.078125 0 
L 9.078125 54.6875 
L 18.109375 54.6875 
L 18.109375 46.1875 
Q 21.1875 51.21875 25.484375 53.609375 
Q 29.78125 56 35.6875 56 
Q 41.65625 56 45.828125 52.96875 
Q 50 49.953125 52 44.1875 
" id="DejaVuSans-6d"/>
     <path d="M 53.515625 70.515625 
L 53.515625 60.890625 
Q 47.90625 63.578125 42.921875 64.890625 
Q 37.9375 66.21875 33.296875 66.21875 
Q 25.25 66.21875 20.875 63.09375 
Q 16.5 59.96875 16.5 54.203125 
Q 16.5 49.359375 19.40625 46.890625 
Q 22.3125 44.4375 30.421875 42.921875 
L 36.375 41.703125 
Q 47.40625 39.59375 52.65625 34.296875 
Q 57.90625 29 57.90625 20.125 
Q 57.90625 9.515625 50.796875 4.046875 
Q 43.703125 -1.421875 29.984375 -1.421875 
Q 24.8125 -1.421875 18.96875 -0.25 
Q 13.140625 0.921875 6.890625 3.21875 
L 6.890625 13.375 
Q 12.890625 10.015625 18.65625 8.296875 
Q 24.421875 6.59375 29.984375 6.59375 
Q 38.421875 6.59375 43.015625 9.90625 
Q 47.609375 13.234375 47.609375 19.390625 
Q 47.609375 24.75 44.3125 27.78125 
Q 41.015625 30.8125 33.5 32.328125 
L 27.484375 33.5 
Q 16.453125 35.6875 11.515625 40.375 
Q 6.59375 45.0625 6.59375 53.421875 
Q 6.59375 63.09375 13.40625 68.65625 
Q 20.21875 74.21875 32.171875 74.21875 
Q 37.3125 74.21875 42.625 73.28125 
Q 47.953125 72.359375 53.515625 70.515625 
" id="DejaVuSans-53"/>
     <path d="M 45.40625 27.984375 
Q 45.40625 37.75 41.375 43.109375 
Q 37.359375 48.484375 30.078125 48.484375 
Q 22.859375 48.484375 18.828125 43.109375 
Q 14.796875 37.75 14.796875 27.984375 
Q 14.796875 18.265625 18.828125 12.890625 
Q 22.859375 7.515625 30.078125 7.515625 
Q 37.359375 7.515625 41.375 12.890625 
Q 45.40625 18.265625 45.40625 27.984375 
M 54.390625 6.78125 
Q 54.390625 -7.171875 48.1875 -13.984375 
Q 42 -20.796875 29.203125 -20.796875 
Q 24.46875 -20.796875 20.265625 -20.09375 
Q 16.0625 -19.390625 12.109375 -17.921875 
L 12.109375 -9.1875 
Q 16.0625 -11.328125 19.921875 -12.34375 
Q 23.78125 -13.375 27.78125 -13.375 
Q 36.625 -13.375 41.015625 -8.765625 
Q 45.40625 -4.15625 45.40625 5.171875 
L 45.40625 9.625 
Q 42.625 4.78125 38.28125 2.390625 
Q 33.9375 0 27.875 0 
Q 17.828125 0 11.671875 7.65625 
Q 5.515625 15.328125 5.515625 27.984375 
Q 5.515625 40.671875 11.671875 48.328125 
Q 17.828125 56 27.875 56 
Q 33.9375 56 38.28125 53.609375 
Q 42.625 51.21875 45.40625 46.390625 
L 45.40625 54.6875 
L 54.390625 54.6875 
z
" id="DejaVuSans-67"/>
     <path d="M 54.890625 33.015625 
L 54.890625 0 
L 45.90625 0 
L 45.90625 32.71875 
Q 45.90625 40.484375 42.875 44.328125 
Q 39.84375 48.1875 33.796875 48.1875 
Q 26.515625 48.1875 22.3125 43.546875 
Q 18.109375 38.921875 18.109375 30.90625 
L 18.109375 0 
L 9.078125 0 
L 9.078125 54.6875 
L 18.109375 54.6875 
L 18.109375 46.1875 
Q 21.34375 51.125 25.703125 53.5625 
Q 30.078125 56 35.796875 56 
Q 45.21875 56 50.046875 50.171875 
Q 54.890625 44.34375 54.890625 33.015625 
" id="DejaVuSans-6e"/>
     <path d="M 34.28125 27.484375 
Q 23.390625 27.484375 19.1875 25 
Q 14.984375 22.515625 14.984375 16.5 
Q 14.984375 11.71875 18.140625 8.90625 
Q 21.296875 6.109375 26.703125 6.109375 
Q 34.1875 6.109375 38.703125 11.40625 
Q 43.21875 16.703125 43.21875 25.484375 
L 43.21875 27.484375 
z
M 52.203125 31.203125 
L 52.203125 0 
L 43.21875 0 
L 43.21875 8.296875 
Q 40.140625 3.328125 35.546875 0.953125 
Q 30.953125 -1.421875 24.3125 -1.421875 
Q 15.921875 -1.421875 10.953125 3.296875 
Q 6 8.015625 6 15.921875 
Q 6 25.140625 12.171875 29.828125 
Q 18.359375 34.515625 30.609375 34.515625 
L 43.21875 34.515625 
L 43.21875 35.40625 
Q 43.21875 41.609375 39.140625 45 
Q 35.0625 48.390625 27.6875 48.390625 
Q 23 48.390625 18.546875 47.265625 
Q 14.109375 46.140625 10.015625 43.890625 
L 10.015625 52.203125 
Q 14.9375 54.109375 19.578125 55.046875 
Q 24.21875 56 28.609375 56 
Q 40.484375 56 46.34375 49.84375 
Q 52.203125 43.703125 52.203125 31.203125 
" id="DejaVuSans-61"/>
     <path d="M 18.3125 70.21875 
L 18.3125 54.6875 
L 36.8125 54.6875 
L 36.8125 47.703125 
L 18.3125 47.703125 
L 18.3125 18.015625 
Q 18.3125 11.328125 20.140625 9.421875 
Q 21.96875 7.515625 27.59375 7.515625 
L 36.8125 7.515625 
L 36.8125 0 
L 27.59375 0 
Q 17.1875 0 13.234375 3.875 
Q 9.28125 7.765625 9.28125 18.015625 
L 9.28125 47.703125 
L 2.6875 47.703125 
L 2.6875 54.6875 
L 9.28125 54.6875 
L 9.28125 70.21875 
z
" id="DejaVuSans-74"/>
     <path d="M 8.5 21.578125 
L 8.5 54.6875 
L 17.484375 54.6875 
L 17.484375 21.921875 
Q 17.484375 14.15625 20.5 10.265625 
Q 23.53125 6.390625 29.59375 6.390625 
Q 36.859375 6.390625 41.078125 11.03125 
Q 45.3125 15.671875 45.3125 23.6875 
L 45.3125 54.6875 
L 54.296875 54.6875 
L 54.296875 0 
L 45.3125 0 
L 45.3125 8.40625 
Q 42.046875 3.421875 37.71875 1 
Q 33.40625 -1.421875 27.6875 -1.421875 
Q 18.265625 -1.421875 13.375 4.4375 
Q 8.5 10.296875 8.5 21.578125 
M 31.109375 56 
z
" id="DejaVuSans-75"/>
     <path d="M 41.109375 46.296875 
Q 39.59375 47.171875 37.8125 47.578125 
Q 36.03125 48 33.890625 48 
Q 26.265625 48 22.1875 43.046875 
Q 18.109375 38.09375 18.109375 28.8125 
L 18.109375 0 
L 9.078125 0 
L 9.078125 54.6875 
L 18.109375 54.6875 
L 18.109375 46.1875 
Q 20.953125 51.171875 25.484375 53.578125 
Q 30.03125 56 36.53125 56 
Q 37.453125 56 38.578125 55.875 
Q 39.703125 55.765625 41.0625 55.515625 
z
" id="DejaVuSans-72"/>
     <path d="M 56.203125 29.59375 
L 56.203125 25.203125 
L 14.890625 25.203125 
Q 15.484375 15.921875 20.484375 11.0625 
Q 25.484375 6.203125 34.421875 6.203125 
Q 39.59375 6.203125 44.453125 7.46875 
Q 49.3125 8.734375 54.109375 11.28125 
L 54.109375 2.78125 
Q 49.265625 0.734375 44.1875 -0.34375 
Q 39.109375 -1.421875 33.890625 -1.421875 
Q 20.796875 -1.421875 13.15625 6.1875 
Q 5.515625 13.8125 5.515625 26.8125 
Q 5.515625 40.234375 12.765625 48.109375 
Q 20.015625 56 32.328125 56 
Q 43.359375 56 49.78125 48.890625 
Q 56.203125 41.796875 56.203125 29.59375 
M 47.21875 32.234375 
Q 47.125 39.59375 43.09375 43.984375 
Q 39.0625 48.390625 32.421875 48.390625 
Q 24.90625 48.390625 20.390625 44.140625 
Q 15.875 39.890625 15.1875 32.171875 
z
" id="DejaVuSans-65"/>
     <path d="M 44.28125 53.078125 
L 44.28125 44.578125 
Q 40.484375 46.53125 36.375 47.5 
Q 32.28125 48.484375 27.875 48.484375 
Q 21.1875 48.484375 17.84375 46.4375 
Q 14.5 44.390625 14.5 40.28125 
Q 14.5 37.15625 16.890625 35.375 
Q 19.28125 33.59375 26.515625 31.984375 
L 29.59375 31.296875 
Q 39.15625 29.25 43.1875 25.515625 
Q 47.21875 21.78125 47.21875 15.09375 
Q 47.21875 7.46875 41.1875 3.015625 
Q 35.15625 -1.421875 24.609375 -1.421875 
Q 20.21875 -1.421875 15.453125 -0.5625 
Q 10.6875 0.296875 5.421875 2 
L 5.421875 11.28125 
Q 10.40625 8.6875 15.234375 7.390625 
Q 20.0625 6.109375 24.8125 6.109375 
Q 31.15625 6.109375 34.5625 8.28125 
Q 37.984375 10.453125 37.984375 14.40625 
Q 37.984375 18.0625 35.515625 20.015625 
Q 33.0625 21.96875 24.703125 23.78125 
L 21.578125 24.515625 
Q 13.234375 26.265625 9.515625 29.90625 
Q 5.8125 33.546875 5.8125 39.890625 
Q 5.8125 47.609375 11.28125 51.796875 
Q 16.75 56 26.8125 56 
Q 31.78125 56 36.171875 55.265625 
Q 40.578125 54.546875 44.28125 53.078125 
" id="DejaVuSans-73"/>
     <path d="M 37.109375 75.984375 
L 37.109375 68.5 
L 28.515625 68.5 
Q 23.6875 68.5 21.796875 66.546875 
Q 19.921875 64.59375 19.921875 59.515625 
L 19.921875 54.6875 
L 34.71875 54.6875 
L 34.71875 47.703125 
L 19.921875 47.703125 
L 19.921875 0 
L 10.890625 0 
L 10.890625 47.703125 
L 2.296875 47.703125 
L 2.296875 54.6875 
L 10.890625 54.6875 
L 10.890625 58.5 
Q 10.890625 67.625 15.140625 71.796875 
Q 19.390625 75.984375 28.609375 75.984375 
z
" id="DejaVuSans-66"/>
     <path d="M -0.296875 72.90625 
L 61.375 72.90625 
L 61.375 64.59375 
L 35.5 64.59375 
L 35.5 0 
L 25.59375 0 
L 25.59375 64.59375 
L -0.296875 64.59375 
z
" id="DejaVuSans-54"/>
     <path d="M 54.890625 54.6875 
L 35.109375 28.078125 
L 55.90625 0 
L 45.3125 0 
L 29.390625 21.484375 
L 13.484375 0 
L 2.875 0 
L 24.125 28.609375 
L 4.6875 54.6875 
L 15.28125 54.6875 
L 29.78125 35.203125 
L 44.28125 54.6875 
z
" id="DejaVuSans-78"/>
     <path d="M 48.78125 52.59375 
L 48.78125 44.1875 
Q 44.96875 46.296875 41.140625 47.34375 
Q 37.3125 48.390625 33.40625 48.390625 
Q 24.65625 48.390625 19.8125 42.84375 
Q 14.984375 37.3125 14.984375 27.296875 
Q 14.984375 17.28125 19.8125 11.734375 
Q 24.65625 6.203125 33.40625 6.203125 
Q 37.3125 6.203125 41.140625 7.25 
Q 44.96875 8.296875 48.78125 10.40625 
L 48.78125 2.09375 
Q 45.015625 0.34375 40.984375 -0.53125 
Q 36.96875 -1.421875 32.421875 -1.421875 
Q 20.0625 -1.421875 12.78125 6.34375 
Q 5.515625 14.109375 5.515625 27.296875 
Q 5.515625 40.671875 12.859375 48.328125 
Q 20.21875 56 33.015625 56 
Q 37.15625 56 41.109375 55.140625 
Q 45.0625 54.296875 48.78125 52.59375 
" id="DejaVuSans-63"/>
    </defs>
    <g transform="translate(78.942043 -6)scale(0.12 -0.12)">
     <use xlink:href="#DejaVuSans-42"/>
     <use x="68.603516" xlink:href="#DejaVuSans-69"/>
     <use x="96.386719" xlink:href="#DejaVuSans-6f"/>
     <use x="157.568359" xlink:href="#DejaVuSans-20"/>
     <use x="189.355469" xlink:href="#DejaVuSans-26"/>
     <use x="267.333984" xlink:href="#DejaVuSans-20"/>
     <use x="299.121094" xlink:href="#DejaVuSans-43"/>
     <use x="368.945312" xlink:href="#DejaVuSans-68"/>
     <use x="432.324219" xlink:href="#DejaVuSans-6d"/>
     <use x="529.736328" xlink:href="#DejaVuSans-20"/>
     <use x="561.523438" xlink:href="#DejaVuSans-53"/>
     <use x="625" xlink:href="#DejaVuSans-69"/>
     <use x="652.783203" xlink:href="#DejaVuSans-67"/>
     <use x="716.259766" xlink:href="#DejaVuSans-6e"/>
     <use x="779.638672" xlink:href="#DejaVuSans-61"/>
     <use x="840.917969" xlink:href="#DejaVuSans-74"/>
     <use x="880.126953" xlink:href="#DejaVuSans-75"/>
     <use x="943.505859" xlink:href="#DejaVuSans-72"/>
     <use x="984.587891" xlink:href="#DejaVuSans-65"/>
     <use x="1046.111328" xlink:href="#DejaVuSans-73"/>
     <use x="1098.210938" xlink:href="#DejaVuSans-20"/>
     <use x="1129.998047" xlink:href="#DejaVuSans-6f"/>
     <use x="1191.179688" xlink:href="#DejaVuSans-66"/>
     <use x="1226.384766" xlink:href="#DejaVuSans-20"/>
     <use x="1258.171875" xlink:href="#DejaVuSans-54"/>
     <use x="1318.990234" xlink:href="#DejaVuSans-6f"/>
     <use x="1380.125" xlink:href="#DejaVuSans-78"/>
     <use x="1439.304688" xlink:href="#DejaVuSans-69"/>
     <use x="1467.087891" xlink:href="#DejaVuSans-63"/>
     <use x="1522.068359" xlink:href="#DejaVuSans-69"/>
     <use x="1549.851562" xlink:href="#DejaVuSans-74"/>
     <use x="1589.060547" xlink:href="#DejaVuSans-69"/>
     <use x="1616.84375" xlink:href="#DejaVuSans-65"/>
     <use x="1678.367188" xlink:href="#DejaVuSans-73"/>
    </g>
   </g>
  </g>
  <g id="axes_2">
   <g id="patch_2">
    <path clip-path="url(#pf2aeb3c268)" d="M 311.538462 206.181818 
L 316.526123 206.181818 
L 316.526123 195.84689 
L 311.538462 195.84689 
z
" style="fill:#808080;"/>
   </g>
   <g id="patch_3">
    <path clip-path="url(#pf2aeb3c268)" d="M 311.538462 185.511962 
L 328.152051 185.511962 
L 328.152051 175.177033 
L 311.538462 175.177033 
z
" style="fill:#808080;"/>
   </g>
   <g id="patch_4">
    <path clip-path="url(#pf2aeb3c268)" d="M 311.538462 164.842105 
L 333.148855 164.842105 
L 333.148855 154.507177 
L 311.538462 154.507177 
z
" style="fill:#808080;"/>
   </g>
   <g id="patch_5">
    <path clip-path="url(#pf2aeb3c268)" d="M 311.538462 144.172249 
L 359.964649 144.172249 
L 359.964649 133.837321 
L 311.538462 133.837321 
z
" style="fill:#808080;"/>
   </g>
   <g id="patch_6">
    <path clip-path="url(#pf2aeb3c268)" d="M 311.538462 123.502392 
L 318.607465 123.502392 
L 318.607465 113.167464 
L 311.538462 113.167464 
z
" style="fill:#808080;"/>
   </g>
   <g id="patch_7">
    <path clip-path="url(#pf2aeb3c268)" d="M 311.538462 102.832536 
L 336.578552 102.832536 
L 336.578552 92.497608 
L 311.538462 92.497608 
z
" style="fill:#808080;"/>
   </g>
   <g id="patch_8">
    <path clip-path="url(#pf2aeb3c268)" d="M 311.538462 82.162679 
L 360.593407 82.162679 
L 360.593407 71.827751 
L 311.538462 71.827751 
z
" style="fill:#808080;"/>
   </g>
   <g id="patch_9">
    <path clip-path="url(#pf2aeb3c268)" d="M 311.538462 61.492823 
L 351.458628 61.492823 
L 351.458628 51.157895 
L 311.538462 51.157895 
z
" style="fill:#808080;"/>
   </g>
   <g id="patch_10">
    <path clip-path="url(#pf2aeb3c268)" d="M 311.538462 40.822967 
L 332.012338 40.822967 
L 332.012338 30.488038 
L 311.538462 30.488038 
z
" style="fill:#808080;"/>
   </g>
   <g id="patch_11">
    <path clip-path="url(#pf2aeb3c268)" d="M 311.538462 20.15311 
L 358.571905 20.15311 
L 358.571905 9.818182 
L 311.538462 9.818182 
z
" style="fill:#808080;"/>
   </g>
   <g id="text_2">
    <!-- Accuracy -->
    <defs>
     <path d="M 34.1875 63.1875 
L 20.796875 26.90625 
L 47.609375 26.90625 
z
M 28.609375 72.90625 
L 39.796875 72.90625 
L 67.578125 0 
L 57.328125 0 
L 50.6875 18.703125 
L 17.828125 18.703125 
L 11.1875 0 
L 0.78125 0 
z
" id="DejaVuSans-41"/>
     <path d="M 32.171875 -5.078125 
Q 28.375 -14.84375 24.75 -17.8125 
Q 21.140625 -20.796875 15.09375 -20.796875 
L 7.90625 -20.796875 
L 7.90625 -13.28125 
L 13.1875 -13.28125 
Q 16.890625 -13.28125 18.9375 -11.515625 
Q 21 -9.765625 23.484375 -3.21875 
L 25.09375 0.875 
L 2.984375 54.6875 
L 12.5 54.6875 
L 29.59375 11.921875 
L 46.6875 54.6875 
L 56.203125 54.6875 
z
" id="DejaVuSans-79"/>
    </defs>
    <g transform="translate(309.794495 -6)scale(0.12 -0.12)">
     <use xlink:href="#DejaVuSans-41"/>
     <use x="68.392578" xlink:href="#DejaVuSans-63"/>
     <use x="123.373047" xlink:href="#DejaVuSans-63"/>
     <use x="178.353516" xlink:href="#DejaVuSans-75"/>
     <use x="241.732422" xlink:href="#DejaVuSans-72"/>
     <use x="282.845703" xlink:href="#DejaVuSans-61"/>
     <use x="344.125" xlink:href="#DejaVuSans-63"/>
     <use x="399.105469" xlink:href="#DejaVuSans-79"/>
    </g>
   </g>
  </g>
 </g>
 <defs>
  <clipPath id="p9ce371bffb">
   <rect height="216" width="257.538462" x="54" y="0"/>
  </clipPath>
  <clipPath id="pf2aeb3c268">
   <rect height="216" width="51.507692" x="311.538462" y="0"/>
  </clipPath>
 </defs>
</svg>
